<svg class="icon" viewBox="0 0 1024 1024" xmlns="http://www.w3.org/2000/svg" width="200" height="200"><defs><style/></defs><path d="M512 64C264.576 64 64 264.577 64 512s200.576 448 448 448 448-200.576 448-448S759.424 64 512 64zm0 832c-212.078 0-384-171.923-384-384s171.922-384 384-384c212.077 0 384 171.923 384 384S724.077 896 512 896z" fill="#1296db"/><path d="M703.001 717L592.013 568.412l1.164-.124C657.479 547.539 704 487.207 704 416c0-88.366-71.634-160-160-160H416c-17.673 0-32 14.327-32 32v448c0 17.673 14.327 32 32 32s32-14.327 32-32V576h68.889l134.912 179.399c10.604 14.139 30.661 17.004 44.799 6.4 14.139-10.603 17.004-30.661 6.401-44.799zM448 512V320h96c53.02 0 96 42.98 96 96s-42.98 96-96 96h-96z" fill="#1296db"/></svg>